<svg width="773.2700439453125px" height="178.39736328125px" xmlns="http://www.w3.org/2000/svg"
     viewBox="-136.63502197265626 -14.198681640624997 773.2700439453125 178.39736328125" style="background:#e00"
     preserveAspectRatio="xMidYMid">
    <defs>
        <filter id="editing-lego" x="-100%" y="-100%" width="300%" height="300%">
            <feFlood flood-color="#000" result="f1"></feFlood>
            <feFlood flood-color="#ff0" result="f2"></feFlood>
            <feMorphology operator="dilate" radius="3" in="SourceAlpha"></feMorphology>
            <feConvolveMatrix order="5,5" divisor="1" result="cm1"
                              kernelMatrix="0 1 1 1 0  1 0 0 0 1  1 0 0 0 1  1 0 0 0 1  0 1 1 1 0"></feConvolveMatrix>
            <feComposite operator="in" in="f1" in2="cm1" result="c1"></feComposite>
            <feMorphology operator="dilate" radius="3"></feMorphology>
            <feConvolveMatrix order="5,5" divisor="1" result="cm2"
                              kernelMatrix="0 1 1 1 0  1 0 0 0 1  1 0 0 0 1  1 0 0 0 1  0 1 1 1 0"></feConvolveMatrix>
            <feComposite operator="in" in="f2" in2="cm2" result="c2"></feComposite>
            <feMerge>
                <feMergeNode in="c2"></feMergeNode>
                <feMergeNode in="c1"></feMergeNode>
                <feMergeNode in="SourceGraphic"></feMergeNode>
            </feMerge>
        </filter>
    </defs>
    <g filter="url(#editing-lego)">
        <g transform="translate(-23.896856784820557, 121.34375)">
            <path d="M45.60 2L45.60 2L45.60 2Q32.80 2 31.60-16.20L31.60-16.20L14.40-16.20L14.40-16.20Q12.40-11.60 11-7.60L11-7.60L8.40 0L-5.60 0L25.90-66L47.40-66L51.60-17.40L51.60-17.40Q52.60-6.90 56.60-3.80L56.60-3.80L56.60-3.80Q53.70 2 45.60 2ZM23-36.20L17.50-23.50L31.30-23.50L30.10-49.20L30.10-51.90L23-36.20ZM64-10L64-10L64-10Q64-12.70 65.40-19.50L65.40-19.50L70.70-46.50L64.80-46.50L65.20-49.50L65.20-49.50Q77.20-53.10 88.80-61.90L88.80-61.90L93.60-61.90L91.20-51L99-51L98.10-46.50L90.40-46.50L85.30-19.50L85.30-19.50Q84-13.30 84-11.20L84-11.20L84-11.20Q84-6.40 88.20-5.40L88.20-5.40L88.20-5.40Q87.20-2 83.60 0L83.60 0L83.60 0Q80 2 74.90 2L74.90 2L74.90 2Q69.80 2 66.90-1.20L66.90-1.20L66.90-1.20Q64-4.40 64-10ZM105.20-41.80L105.20-41.80L105.20-41.80Q108.60-46.60 113.75-49.80L113.75-49.80L113.75-49.80Q118.90-53 125.20-53L125.20-53L125.20-53Q131.50-53 134.50-51L134.50-51L154.10-53L147.30-14.60L147.30-14.60Q143.80 5 136.40 12.70L136.40 12.70L136.40 12.70Q129.30 20 115.50 20L115.50 20L115.50 20Q105 20 99 16.70L99 16.70L99 16.70Q93 13.40 93 7.90L93 7.90L93 7.90Q93 3.80 96.10 1.45L96.10 1.45L96.10 1.45Q99.20-0.90 104-0.90L104-0.90L104-0.90Q108.20-0.90 111.40 1L111.40 1L111.40 1Q113.30 2 114.20 3.40L114.20 3.40L114.20 3.40Q111.90 5.40 111.90 8.70L111.90 8.70L111.90 8.70Q111.90 13 115.90 13L115.90 13L115.90 13Q122.60 13 126.40-2.80L126.40-2.80L126.40-2.80Q127.50-7.10 128.40-11.40L128.40-11.40L128.40-11.40Q123.90-5.90 113.70-5.90L113.70-5.90L113.70-5.90Q106.60-5.90 102.50-9.30L102.50-9.30L102.50-9.30Q98.40-12.70 98.40-20.70L98.40-20.70L98.40-20.70Q98.40-25.70 100.10-31.35L100.10-31.35L100.10-31.35Q101.80-37 105.20-41.80ZM118.20-20.40L118.20-20.40L118.20-20.40Q118.20-13.60 121.70-13.60L121.70-13.60L121.70-13.60Q124.10-13.60 126.40-16.20L126.40-16.20L126.40-16.20Q128.20-18.30 128.90-21.40L128.90-21.40L134-47.10L134-47.10Q133.50-47.20 133-47.40L133-47.40L133-47.40Q132-47.80 130.70-47.80L130.70-47.80L130.70-47.80Q124.60-47.80 121-37.80L121-37.80L121-37.80Q118.20-30 118.20-20.40ZM190.10-4.20L190.10-4.20L190.10-4.20Q185.30 2 173.40 2L173.40 2L173.40 2Q167.20 2 162.70-1.75L162.70-1.75L162.70-1.75Q158.20-5.50 158.20-10.90L158.20-10.90L158.20-10.90Q158.20-13.90 158.50-15.40L158.50-15.40L165.20-51L185.50-53L178.20-14.40L178.20-14.40Q177.80-12.20 177.80-10.90L177.80-10.90L177.80-10.90Q177.80-5.10 181.30-5.10L181.30-5.10L181.30-5.10Q185.20-5.10 188-10.40L188-10.40L188-10.40Q188.90-12.10 189.30-14.30L189.30-14.30L196.40-51L216.10-53L208.70-14L208.70-14Q208.40-12.50 208.40-10.90L208.40-10.90L208.40-10.90Q208.40-9.30 209.30-7.55L209.30-7.55L209.30-7.55Q210.20-5.80 213.10-5.40L213.10-5.40L213.10-5.40Q212.50-3 210.40-1.40L210.40-1.40L210.40-1.40Q206 2 201.25 2L201.25 2L201.25 2Q196.50 2 193.70 0.30L193.70 0.30L193.70 0.30Q190.90-1.40 190.10-4.20ZM245.50-5.50L245.50-5.50L245.50-5.50Q242.40 2 232.50 2L232.50 2L232.50 2Q227.40 2 224.20-1.50L224.20-1.50L224.20-1.50Q221.50-4.60 221.50-7.70L221.50-7.70L221.50-7.70Q221.50-15.80 225.20-31.60L225.20-31.60L228.90-51L249.20-53L243.10-21.40L243.10-21.40Q241.40-14 241.40-11.40L241.40-11.40L241.40-11.40Q241.40-5.70 245.50-5.50ZM230.70-64.90L230.70-64.90L230.70-64.90Q230.70-68.80 233.95-70.90L233.95-70.90L233.95-70.90Q237.20-73 241.90-73L241.90-73L241.90-73Q246.60-73 249.45-70.90L249.45-70.90L249.45-70.90Q252.30-68.80 252.30-64.90L252.30-64.90L252.30-64.90Q252.30-61 249.15-59L249.15-59L249.15-59Q246-57 241.30-57L241.30-57L241.30-57Q236.60-57 233.65-59L233.65-59L233.65-59Q230.70-61 230.70-64.90ZM261.10-41.80L261.10-41.80L261.10-41.80Q264.50-46.60 269.65-49.80L269.65-49.80L269.65-49.80Q274.80-53 281.10-53L281.10-53L281.10-53Q287.40-53 290.40-51L290.40-51L310-53L303.20-14.60L303.20-14.60Q299.70 5 292.30 12.70L292.30 12.70L292.30 12.70Q285.20 20 271.40 20L271.40 20L271.40 20Q260.90 20 254.90 16.70L254.90 16.70L254.90 16.70Q248.90 13.40 248.90 7.90L248.90 7.90L248.90 7.90Q248.90 3.80 252 1.45L252 1.45L252 1.45Q255.10-0.90 259.90-0.90L259.90-0.90L259.90-0.90Q264.10-0.90 267.30 1L267.30 1L267.30 1Q269.20 2 270.10 3.40L270.10 3.40L270.10 3.40Q267.80 5.40 267.80 8.70L267.80 8.70L267.80 8.70Q267.80 13 271.80 13L271.80 13L271.80 13Q278.50 13 282.30-2.80L282.30-2.80L282.30-2.80Q283.40-7.10 284.30-11.40L284.30-11.40L284.30-11.40Q279.80-5.90 269.60-5.90L269.60-5.90L269.60-5.90Q262.50-5.90 258.40-9.30L258.40-9.30L258.40-9.30Q254.30-12.70 254.30-20.70L254.30-20.70L254.30-20.70Q254.30-25.70 256-31.35L256-31.35L256-31.35Q257.70-37 261.10-41.80ZM274.10-20.40L274.10-20.40L274.10-20.40Q274.10-13.60 277.60-13.60L277.60-13.60L277.60-13.60Q280-13.60 282.30-16.20L282.30-16.20L282.30-16.20Q284.10-18.30 284.80-21.40L284.80-21.40L289.90-47.10L289.90-47.10Q289.40-47.20 288.90-47.40L288.90-47.40L288.90-47.40Q287.90-47.80 286.60-47.80L286.60-47.80L286.60-47.80Q280.50-47.80 276.90-37.80L276.90-37.80L276.90-37.80Q274.10-30 274.10-20.40ZM346.00-4.20L346.00-4.20L346.00-4.20Q341.20 2 329.30 2L329.30 2L329.30 2Q323.10 2 318.60-1.75L318.60-1.75L318.60-1.75Q314.10-5.50 314.10-10.90L314.10-10.90L314.10-10.90Q314.10-13.90 314.40-15.40L314.40-15.40L321.10-51L341.40-53L334.10-14.40L334.10-14.40Q333.70-12.20 333.70-10.90L333.70-10.90L333.70-10.90Q333.70-5.10 337.20-5.10L337.20-5.10L337.20-5.10Q341.10-5.10 343.90-10.40L343.90-10.40L343.90-10.40Q344.80-12.10 345.20-14.30L345.20-14.30L352.30-51L372.00-53L364.60-14L364.60-14Q364.30-12.50 364.30-10.90L364.30-10.90L364.30-10.90Q364.30-9.30 365.20-7.55L365.20-7.55L365.20-7.55Q366.10-5.80 369.00-5.40L369.00-5.40L369.00-5.40Q368.40-3 366.30-1.40L366.30-1.40L366.30-1.40Q361.90 2 357.15 2L357.15 2L357.15 2Q352.40 2 349.60 0.30L349.60 0.30L349.60 0.30Q346.80-1.40 346.00-4.20ZM397.90 0L376.50 0L388.70-65.70L388.70-65.70Q398.60-66.80 413.05-66.80L413.05-66.80L413.05-66.80Q427.50-66.80 434.20-62.60L434.20-62.60L434.20-62.60Q440.90-58.40 440.90-49.95L440.90-49.95L440.90-49.95Q440.90-41.50 436.55-36.20L436.55-36.20L436.55-36.20Q432.20-30.90 424.70-29.20L424.70-29.20L424.70-29.20Q426.40-20.90 430.30-14.20L430.30-14.20L430.30-14.20Q433.90-7.90 438.10-5.90L438.10-5.90L438.10-5.90Q436.60-1.70 433.55 0.15L433.55 0.15L433.55 0.15Q430.50 2 426.15 2L426.15 2L426.15 2Q421.80 2 418.40-0.55L418.40-0.55L418.40-0.55Q415.00-3.10 412.30-7.80L412.30-7.80L412.30-7.80Q406.60-18 406.00-34.10L406.00-34.10L406.70-34.10L406.70-34.10Q414.10-34.30 417.80-38.15L417.80-38.15L417.80-38.15Q421.50-42 421.50-50.10L421.50-50.10L421.50-50.10Q421.50-60.20 413.00-60.60L413.00-60.60L410.80-60.60L410.80-60.60Q409.90-60.60 409.40-60.50L409.40-60.50L397.90 0ZM486.00-16.90L486.00-16.90L486.00-16.90Q488.50-15.20 488.50-11.45L488.50-11.45L488.50-11.45Q488.50-7.70 486.60-5.30L486.60-5.30L486.60-5.30Q484.70-2.90 481.60-1.30L481.60-1.30L481.60-1.30Q475.20 2 468.30 2L468.30 2L468.30 2Q461.40 2 457.35 0.50L457.35 0.50L457.35 0.50Q453.30-1 450.60-3.80L450.60-3.80L450.60-3.80Q445.30-9.10 445.30-18.80L445.30-18.80L445.30-18.80Q445.30-33.90 453.50-43.10L453.50-43.10L453.50-43.10Q462.30-53 477.60-53L477.60-53L477.60-53Q487.10-53 491.80-49L491.80-49L491.80-49Q495.30-46 495.30-41.10L495.30-41.10L495.30-41.10Q495.30-23.50 464.90-23.50L464.90-23.50L464.90-23.50Q464.50-20.90 464.50-18.70L464.50-18.70L464.50-18.70Q464.50-14.10 466.55-12.35L466.55-12.35L466.55-12.35Q468.60-10.60 472.40-10.60L472.40-10.60L472.40-10.60Q476.20-10.60 480.25-12.35L480.25-12.35L480.25-12.35Q484.30-14.10 486.00-16.90ZM465.60-27.80L465.60-27.80L465.60-27.80Q472.70-27.80 476.80-32.20L476.80-32.20L476.80-32.20Q480.90-36.40 480.90-43.10L480.90-43.10L480.90-43.10Q480.90-45.40 480.05-46.65L480.05-46.65L480.05-46.65Q479.20-47.90 477.50-47.90L477.50-47.90L477.50-47.90Q475.80-47.90 474.35-47.25L474.35-47.25L474.35-47.25Q472.90-46.60 471.40-44.40L471.40-44.40L471.40-44.40Q467.70-39.40 465.60-27.80ZM547.80-41.60L547.80-41.60L547.80-41.60Q547.80-37.40 544.30-34.80L544.30-34.80L544.30-34.80Q540.80-32.20 535.10-32.20L535.10-32.20L535.10-32.20Q532.70-32.20 531.30-32.90L531.30-32.90L531.30-32.90Q532.40-35.50 532.75-38.75L532.75-38.75L532.75-38.75Q533.10-42 533.10-42.90L533.10-42.90L533.10-42.90Q533.10-47.10 530.20-47.10L530.20-47.10L530.20-47.10Q528.20-47.10 525.95-44.60L525.95-44.60L525.95-44.60Q523.70-42.10 521.80-38.20L521.80-38.20L521.80-38.20Q517.60-29.20 517.60-20.10L517.60-20.10L517.60-20.10Q517.60-15.10 519.50-12.85L519.50-12.85L519.50-12.85Q521.40-10.60 525.60-10.60L525.60-10.60L525.60-10.60Q531.40-10.60 536-15.40L536-15.40L536-15.40Q537.30-16.90 538-18.60L538-18.60L538-18.60Q541.80-16.60 541.80-11.10L541.80-11.10L541.80-11.10Q541.80-5.50 535.60-1.80L535.60-1.80L535.60-1.80Q529.20 2 519 2L519 2L519 2Q498.70 2 498.70-19.50L498.70-19.50L498.70-19.50Q498.70-35.20 507.60-44.20L507.60-44.20L507.60-44.20Q516.20-53 532-53L532-53L532-53Q547.80-53 547.80-41.60Z"
                  fill="#fff"></path>
        </g>
    </g>
    <style>text {
        font-size: 64px;
        font-family: Arial Black;
        dominant-baseline: central;
        text-anchor: middle;
        }
    </style>
</svg>
